<?xml version="1.0" encoding="UTF-8"?>
<svg version="1.1" xmlns="http://www.w3.org/2000/svg" width="423" height="427">
<path d="M0 0 C139.59 0 279.18 0 423 0 C423 140.91 423 281.82 423 427 C283.41 427 143.82 427 0 427 C0 286.09 0 145.18 0 0 Z " fill="#FEFEFE" transform="translate(0,0)"/>
<path d="M0 0 C11.79798068 8.39786819 20.11742648 22.2368132 22.5625 36.4765625 C23.59700638 48.99785361 23.84818435 61.87788212 18.5625 73.4765625 C18.16160156 74.39953125 17.76070312 75.3225 17.34765625 76.2734375 C9.29224313 92.80454616 -4.9487205 102.49638455 -21.4375 109.4765625 C-22.24703125 109.83878906 -23.0565625 110.20101562 -23.890625 110.57421875 C-38.15815682 115.6291265 -54.86567696 113.9568728 -69.4375 111.4765625 C-69.56511719 112.48847656 -69.69273437 113.50039062 -69.82421875 114.54296875 C-71.63213369 126.1389582 -74.96315522 138.00221772 -83.4375 146.4765625 C-88.9137702 150.10778109 -93.89649532 152.62460041 -100.546875 152.57421875 C-101.30097656 152.57099609 -102.05507812 152.56777344 -102.83203125 152.56445312 C-103.60933594 152.55607422 -104.38664062 152.54769531 -105.1875 152.5390625 C-105.98027344 152.53455078 -106.77304688 152.53003906 -107.58984375 152.52539062 C-109.53909508 152.51364815 -111.48830738 152.49571396 -113.4375 152.4765625 C-112.85333014 146.92888573 -111.85841354 141.77565299 -110.328125 136.41796875 C-110.11943787 135.67054916 -109.91075073 134.92312958 -109.69573975 134.15306091 C-109.03166073 131.78019284 -108.35961901 129.40966408 -107.6875 127.0390625 C-107.25210403 125.48516609 -106.81720481 123.93113041 -106.3828125 122.37695312 C-104.20926979 114.62191148 -101.98768603 106.88115491 -99.72265625 99.15234375 C-99.51968933 98.45830948 -99.31672241 97.76427521 -99.10760498 97.04920959 C-91.98323545 72.87218835 -72.70427606 54.41974715 -51.4375 41.4765625 C-50.7775 41.4765625 -50.1175 41.4765625 -49.4375 41.4765625 C-51.18340772 48.81731088 -53.19130205 56.01833222 -55.45703125 63.21484375 C-56.73868682 67.47851866 -57.79736646 71.7821445 -58.82421875 76.11328125 C-59.4375 78.4765625 -59.4375 78.4765625 -60.4375 80.4765625 C-45.44209013 80.31061732 -30.60845607 80.06779197 -19.28125 68.76171875 C-13.58905549 61.70677428 -11.61676503 54.63600583 -12.0234375 45.625 C-12.88695421 39.05901444 -14.77443101 33.62609259 -19.6875 29.0390625 C-27.70549454 23.08042656 -35.60406683 22.67655438 -45.4375 23.4765625 C-62.47266953 26.39271135 -77.15033444 39.61759156 -88.734375 51.73046875 C-91.08854238 54.14403027 -93.6276587 56.30810295 -96.18359375 58.50390625 C-98.39743199 60.44149431 -100.56018519 62.42803362 -102.71630859 64.42944336 C-139.61275935 98.64176836 -139.61275935 98.64176836 -161.6875 98.7265625 C-163.27178633 98.66390711 -164.85594153 98.58864145 -166.4375 98.4765625 C-166.7675 97.8165625 -167.0975 97.1565625 -167.4375 96.4765625 C-166.8084375 96.25742188 -166.179375 96.03828125 -165.53125 95.8125 C-160.09010991 93.79665593 -155.71526038 91.53021251 -151.2265625 87.84375 C-149.4375 86.4765625 -149.4375 86.4765625 -147.3359375 85.546875 C-144.91677977 84.18298772 -144.57268574 82.98287455 -143.4375 80.4765625 C-142.15176749 78.72740112 -140.83512364 77.00082138 -139.5 75.2890625 C-135.76893457 70.4192655 -132.3641888 65.39577822 -129.0625 60.2265625 C-113.23452375 35.52008515 -93.94572445 5.80870876 -65.4375 -5.5234375 C-64.45652344 -5.96558594 -63.47554688 -6.40773438 -62.46484375 -6.86328125 C-41.773861 -15.13509163 -18.57157203 -11.60723252 0 0 Z " fill="#2E2873" transform="translate(312.4375,105.5234375)"/>
<path d="M0 0 C1.04220703 -0.01611328 2.08441406 -0.03222656 3.15820312 -0.04882812 C13.93854791 -0.05551154 23.52469208 2.24265084 33.0625 7.25 C33.73796875 7.58451172 34.4134375 7.91902344 35.109375 8.26367188 C38.86269284 10.18096711 41.74359542 12.09808585 44.5625 15.3125 C43.9132959 15.92907471 43.9132959 15.92907471 43.25097656 16.55810547 C38.7955857 20.88644146 34.9824734 25.4338507 31.3125 30.4375 C30.796875 31.12714844 30.28125 31.81679687 29.75 32.52734375 C27.15596184 36.02394673 24.716577 39.52073431 22.5625 43.3125 C20.36479607 42.83473828 18.42510733 42.25173486 16.36328125 41.33984375 C5.84819294 36.73433412 -5.71878739 36.56828432 -16.5 40.4375 C-21.74247514 42.76168574 -26.17282026 45.49029255 -30.4375 49.3125 C-31.35982422 50.09753906 -31.35982422 50.09753906 -32.30078125 50.8984375 C-39.32152101 57.3027954 -44.20269404 66.82908804 -44.80859375 76.37890625 C-45.15280866 88.84252714 -43.52561554 98.92241373 -35.1875 108.75 C-27.68146648 116.44368436 -20.06079533 121.49305936 -9.19140625 121.74414062 C8.70017504 121.78220782 23.28327069 115.45350965 36.5625 103.3125 C37.2225 103.6425 37.8825 103.9725 38.5625 104.3125 C38.35157715 105.04025635 38.1406543 105.7680127 37.92333984 106.51782227 C37.28846868 108.71265766 36.65542128 110.90802098 36.02368164 113.10375977 C35.29527514 115.63279891 34.56263966 118.1606236 33.82592773 120.68725586 C32.04930306 126.82015203 30.37242367 132.94523197 29.01171875 139.1875 C28.77469238 140.23478271 28.53766602 141.28206543 28.29345703 142.36108398 C27.8567312 144.33017837 27.45128678 146.30654299 27.08154297 148.28930664 C25.64230079 154.63201345 25.64230079 154.63201345 22.64794922 156.51904297 C20.29553827 157.33479431 18.00727082 157.84999614 15.5625 158.3125 C14.31597656 158.69664062 13.06945312 159.08078125 11.78515625 159.4765625 C-8.17758227 164.22184406 -29.4911349 159.93508282 -46.72119141 149.41992188 C-65.4023131 137.36621376 -76.89732161 119.02387079 -82.25 97.6875 C-86.22895441 77.26977966 -82.92044945 56.17196386 -71.5625 38.5625 C-70.53819152 37.13323235 -69.49582456 35.716766 -68.4375 34.3125 C-67.85355469 33.50296875 -67.26960938 32.6934375 -66.66796875 31.859375 C-54.39272328 15.55904904 -35.51245706 4.15278348 -15.43945312 0.70507812 C-10.29190601 0.03191159 -5.18491274 -0.01597324 0 0 Z " fill="#5F19A0" transform="translate(158.4375,97.6875)"/>
<path d="M0 0 C-1.74590772 7.34074838 -3.75380205 14.54176972 -6.01953125 21.73828125 C-7.30118682 26.00195616 -8.35986646 30.305582 -9.38671875 34.63671875 C-10 37 -10 37 -11 39 C4.05139353 38.83343528 18.72111693 38.54242808 30.16015625 27.31640625 C34.44588457 21.9205742 36.83287315 15.74745208 38 9 C38.66 9 39.32 9 40 9 C40.05455124 11.66694948 40.09393392 14.33275498 40.125 17 C40.14175781 17.74378906 40.15851563 18.48757812 40.17578125 19.25390625 C40.30799504 34.45849203 33.45271388 47.29217403 23.05859375 58 C13.28671269 67.15990467 1.00871226 71.41535988 -12.23828125 71.203125 C-14.90130194 71.00725926 -17.39789604 70.58772476 -20 70 C-20.19142578 71.51787109 -20.19142578 71.51787109 -20.38671875 73.06640625 C-22.19463369 84.6623957 -25.52565522 96.52565522 -34 105 C-39.4762702 108.63121859 -44.45899532 111.14803791 -51.109375 111.09765625 C-51.86347656 111.09443359 -52.61757812 111.09121094 -53.39453125 111.08789062 C-54.17183594 111.07951172 -54.94914063 111.07113281 -55.75 111.0625 C-56.54277344 111.05798828 -57.33554688 111.05347656 -58.15234375 111.04882812 C-60.10159508 111.03708565 -62.05080738 111.01915146 -64 111 C-63.41583014 105.45232323 -62.42091354 100.29909049 -60.890625 94.94140625 C-60.68193787 94.19398666 -60.47325073 93.44656708 -60.25823975 92.67649841 C-59.59416073 90.30363034 -58.92211901 87.93310158 -58.25 85.5625 C-57.81460403 84.00860359 -57.37970481 82.45456791 -56.9453125 80.90039062 C-54.77176979 73.14534898 -52.55018603 65.40459241 -50.28515625 57.67578125 C-49.98070587 56.63472984 -49.98070587 56.63472984 -49.67010498 55.57264709 C-44.85354364 39.22732622 -20.2962853 0 0 0 Z " fill="#1D1759" transform="translate(263,147)"/>
<path d="M0 0 C0.82371094 -0.00644531 1.64742188 -0.01289062 2.49609375 -0.01953125 C8.33332358 0.10246873 13.26409505 1.37260049 18.6875 3.5 C18.6875 4.16 18.6875 4.82 18.6875 5.5 C19.43 5.62375 20.1725 5.7475 20.9375 5.875 C23.6875 6.5 23.6875 6.5 25.875 7.625 C26.473125 7.91375 27.07125 8.2025 27.6875 8.5 C28.3475 8.17 29.0075 7.84 29.6875 7.5 C40.12305847 23.53597485 43.9011827 41.5910589 40.00390625 60.5859375 C39.09635813 63.69645513 38.03039703 66.55320401 36.6875 69.5 C36.28660156 70.42296875 35.88570313 71.3459375 35.47265625 72.296875 C27.41724313 88.82798366 13.1762795 98.51982205 -3.3125 105.5 C-4.52679688 106.04333984 -4.52679688 106.04333984 -5.765625 106.59765625 C-15.59108948 110.07876407 -27.0369931 109.78499095 -37.3125 109.5 C-34.58170273 107.67946848 -32.33200376 106.82543963 -29.22290039 105.90332031 C-16.47114693 102.08457964 -6.30345797 95.2064489 0.4453125 83.43359375 C1.94354013 80.48418428 3.35899598 77.52932765 4.6875 74.5 C5.05101562 73.68015625 5.41453125 72.8603125 5.7890625 72.015625 C7.79790854 66.39085609 7.94450346 60.53460511 8.25 54.625 C8.29318359 53.84125 8.33636719 53.0575 8.38085938 52.25 C8.48603351 50.33349351 8.58717925 48.41676667 8.6875 46.5 C8.0275 46.5 7.3675 46.5 6.6875 46.5 C6.60113281 45.7265625 6.51476562 44.953125 6.42578125 44.15625 C5.34521923 36.14621224 3.940912 29.971088 -2.5 24.71484375 C-11.0773815 18.7473563 -19.74862882 18.23399036 -30.06640625 19.9609375 C-35.81126438 21.52855529 -40.8268954 24.22343446 -45.96484375 27.1953125 C-48.3125 28.5 -48.3125 28.5 -51.3125 29.5 C-49.75646229 25.68063472 -47.35645069 23.23955562 -44.3125 20.5 C-43.6525 20.5 -42.9925 20.5 -42.3125 20.5 C-42.3125 19.84 -42.3125 19.18 -42.3125 18.5 C-38.85096154 15.5 -38.85096154 15.5 -36.3125 15.5 C-36.3125 14.84 -36.3125 14.18 -36.3125 13.5 C-25.53190856 4.55566314 -13.908288 0.10287195 0 0 Z " fill="#4A2992" transform="translate(294.3125,109.5)"/>
<path d="M0 0 C1.96285585 2.94428378 3.4704839 5.90481323 5.0625 9.0625 C12.48065687 22.81285676 22.75840819 31.21557296 37.4921875 36.2734375 C47.39299525 39.14189582 58.14338711 39.00278913 68 36 C68.94488281 35.72027344 69.88976562 35.44054687 70.86328125 35.15234375 C80.84337141 32.02009182 89.28926437 27.80254838 97.67578125 21.55078125 C100 20 100 20 102.4921875 19.01953125 C105.36480949 17.8516896 107.40288254 16.31707975 109.8125 14.375 C110.60269531 13.74335938 111.39289063 13.11171875 112.20703125 12.4609375 C112.79871094 11.97882813 113.39039063 11.49671875 114 11 C115.10553856 14.31708974 114.87707879 16.33885452 113.890625 19.66796875 C113.63023437 20.56193359 113.36984375 21.45589844 113.1015625 22.37695312 C112.82054687 23.30443359 112.53953125 24.23191406 112.25 25.1875 C111.85167969 26.5497168 111.85167969 26.5497168 111.4453125 27.93945312 C110.16469901 32.28172752 108.81496031 36.58954298 107.35546875 40.875 C106.1146012 44.54260688 105.32825839 48.13547294 104.72265625 51.95703125 C103.71332638 54.81043406 102.35514704 56.11268353 100 58 C97.1953125 59.01171875 97.1953125 59.01171875 94.125 59.6875 C93.11695313 59.91824219 92.10890625 60.14898437 91.0703125 60.38671875 C90.05710937 60.58910156 89.04390625 60.79148438 88 61 C87.12214844 61.185625 86.24429688 61.37125 85.33984375 61.5625 C64.35046803 64.31198547 46.42324766 61.34012644 29.01953125 48.86328125 C14.53791947 37.41781429 3.13561842 22.0403392 -0.69140625 3.68359375 C-0.79324219 2.79800781 -0.89507812 1.91242188 -1 1 C-0.67 0.67 -0.34 0.34 0 0 Z " fill="#8420C3" transform="translate(78,195)"/>
<path d="M0 0 C10.73098863 -0.47155176 19.4905103 2.8190546 28.0390625 9.23046875 C26.62132788 12.77480529 25.36294012 13.56852994 22.0390625 15.23046875 C21.33401746 16.54391221 20.67230972 17.88094284 20.0390625 19.23046875 C18.39458736 22.01619751 16.62738496 24.71458545 14.8515625 27.41796875 C14.16610352 28.52301758 14.16610352 28.52301758 13.46679688 29.65039062 C10.96150964 33.42743254 9.86564372 34.98647258 5.38671875 36.30859375 C2.0390625 36.23046875 2.0390625 36.23046875 -1.3359375 34.79296875 C-10.07326498 31.1453466 -21.31459545 32.20891743 -30.0234375 35.35546875 C-35.26591264 37.67965449 -39.69625776 40.4082613 -43.9609375 44.23046875 C-44.88326172 45.01550781 -44.88326172 45.01550781 -45.82421875 45.81640625 C-53.03378536 52.39301305 -56.23391226 61.05170087 -58.9609375 70.23046875 C-59.2909375 70.23046875 -59.6209375 70.23046875 -59.9609375 70.23046875 C-60.57573713 50.65934731 -55.32635485 34.27029967 -42.421875 19.28125 C-30.34919142 6.53013031 -17.21382307 1.33986222 0 0 Z " fill="#5F1A9D" transform="translate(171.9609375,102.76953125)"/>
<path d="M0 0 C23.75609756 0 23.75609756 0 28.875 4.5625 C29.57625 5.366875 30.2775 6.17125 31 7 C31.33 7.33 31.66 7.66 32 8 C32.62057815 12.54043257 33.01294509 17.07268501 30.8359375 21.21484375 C27.94061005 24.72635627 25.41302622 26.67734583 21 28 C17.44921875 28.1953125 17.44921875 28.1953125 13.6875 28.125 C12.43324219 28.10695313 11.17898438 28.08890625 9.88671875 28.0703125 C8.93410156 28.04710937 7.98148437 28.02390625 7 28 C7 31.96 7 35.92 7 40 C4.69 40 2.38 40 0 40 C0 26.8 0 13.6 0 0 Z " fill="#2C2857" transform="translate(275,291)"/>
<path d="M0 0 C3.77702297 2.63513231 6.60374735 5.7074947 8.6875 9.875 C9.23422327 16.21698994 8.37604101 20.61562923 4.6875 25.875 C0.85104896 29.80982158 -2.51595748 30.18217934 -7.8125 30.375 C-13.34594896 30.19853466 -16.29558458 29.68049882 -20.3125 25.875 C-24.43797057 21.180499 -24.72024344 16.6608476 -24.65625 10.60546875 C-24.1034117 6.21417365 -22.63961861 4.76814662 -19.3125 1.875 C-13.4040846 -2.24715028 -6.66818939 -2.2646681 0 0 Z " fill="#211C51" transform="translate(111.3125,301.125)"/>
<path d="M0 0 C4.77951721 1.62162191 7.18933474 3.83605147 10 8 C12.02343 14.07028999 11.11163405 18.55221268 8.36328125 24.10546875 C6.50516339 26.68766692 4.67539496 28.26685871 2 30 C-1.15625 30.49609375 -1.15625 30.49609375 -4.5 30.4375 C-5.6034375 30.43621094 -6.706875 30.43492187 -7.84375 30.43359375 C-12.84145517 29.74702782 -15.26482914 27.95373516 -18.3125 24 C-20.79652564 19.22458743 -20.79034762 14.24000473 -20 9 C-15.38937431 -0.22125139 -9.61315691 -0.94069766 0 0 Z " fill="#231F51" transform="translate(352,301)"/>
<path d="M0 0 C3.68064353 1.94903276 5.37557041 3.84581263 7.9140625 7.23046875 C8.2440625 10.53046875 8.5740625 13.83046875 8.9140625 17.23046875 C1.3240625 17.23046875 -6.2659375 17.23046875 -14.0859375 17.23046875 C-12.7659375 18.88046875 -11.4459375 20.53046875 -10.0859375 22.23046875 C-6.07002927 22.6129362 -3.15844974 22.49263841 0.7265625 21.54296875 C1.4484375 21.43984375 2.1703125 21.33671875 2.9140625 21.23046875 C4.7265625 22.66796875 4.7265625 22.66796875 5.9140625 24.23046875 C4.98683171 26.54854573 4.34518231 27.94739008 2.23046875 29.3359375 C-3.09733475 31.39338607 -10.05320245 31.38383488 -15.38671875 29.35546875 C-19.71134678 26.54029333 -21.62676589 23.20881894 -23.0859375 18.23046875 C-23.66954176 12.78349569 -22.88560569 8.95490882 -20.0859375 4.23046875 C-14.45942886 -1.12618336 -7.35162269 -2.71211549 0 0 Z " fill="#1D184E" transform="translate(214.0859375,300.76953125)"/>
<path d="M0 0 C3.25 2.25 3.25 2.25 4.07421875 4.25 C4.13222656 4.91 4.19023438 5.57 4.25 6.25 C2.3125 8.5 2.3125 8.5 0.25 10.25 C-1.75 9.25 -3.75 8.25 -5.75 7.25 C-10.95671061 6.60492081 -14.56709835 6.3326477 -18.8125 9.625 C-21.86742118 13.76392547 -22.09504044 16.07439344 -21.75 21.25 C-20.17275698 25.23066095 -19.33999089 26.85667274 -15.75 29.25 C-13.37392133 29.60420761 -13.37392133 29.60420761 -10.8125 29.5625 C-9.53052734 29.58763672 -9.53052734 29.58763672 -8.22265625 29.61328125 C-5.3078644 29.18504169 -3.93673321 28.17290461 -1.75 26.25 C1.65062014 27.65715316 3.14229698 29.27868228 5.25 32.25 C1.72386159 36.14731088 -1.36925012 38.05830636 -6.6328125 38.7890625 C-8.04619605 38.84141004 -9.46065687 38.86981926 -10.875 38.875 C-11.555625 38.8853125 -12.23625 38.895625 -12.9375 38.90625 C-19.49450259 38.7276546 -23.09938943 35.97563833 -27.5 31.375 C-31.6442841 25.61904986 -32.49101401 20.18637705 -31.75 13.25 C-29.96104568 6.76504061 -26.09717863 3.06633314 -20.75 -0.75 C-14.25800277 -2.91399908 -6.25782348 -2.89608891 0 0 Z " fill="#201C51" transform="translate(79.75,292.75)"/>
<path d="M0 0 C2.05078125 0.03255208 4.1015625 0.06510417 6.15234375 0.09765625 C6.15234375 1.08765625 6.15234375 2.07765625 6.15234375 3.09765625 C6.81234375 2.60265625 7.47234375 2.10765625 8.15234375 1.59765625 C11.90646374 -0.27940374 15.07195281 -0.61332096 19.15234375 0.09765625 C23.11538748 1.67668149 25.74880648 3.49235035 28.15234375 7.09765625 C28.37939453 9.64135742 28.37939453 9.64135742 28.34765625 12.640625 C28.34121094 13.71376953 28.33476562 14.78691406 28.328125 15.89257812 C28.31136719 17.01212891 28.29460937 18.13167969 28.27734375 19.28515625 C28.26832031 20.41630859 28.25929687 21.54746094 28.25 22.71289062 C28.22641237 25.50802453 28.19349675 28.3027347 28.15234375 31.09765625 C25.18234375 31.09765625 22.21234375 31.09765625 19.15234375 31.09765625 C19.1272876 30.46674072 19.10223145 29.8358252 19.07641602 29.18579102 C18.96080238 26.343688 18.83792059 23.50194542 18.71484375 20.66015625 C18.67552734 19.66693359 18.63621094 18.67371094 18.59570312 17.65039062 C18.55380859 16.70615234 18.51191406 15.76191406 18.46875 14.7890625 C18.43209229 13.91451416 18.39543457 13.03996582 18.35766602 12.13891602 C18.37053309 10.10491605 18.37053309 10.10491605 17.15234375 9.09765625 C15.63306337 9.02585661 14.11066893 9.01373618 12.58984375 9.03515625 C11.76355469 9.04417969 10.93726563 9.05320312 10.0859375 9.0625 C9.44785156 9.07410156 8.80976563 9.08570313 8.15234375 9.09765625 C7.37279795 11.9051308 6.98132885 14.51795433 6.8359375 17.42578125 C6.79404297 18.225 6.75214844 19.02421875 6.70898438 19.84765625 C6.65000977 21.08515625 6.65000977 21.08515625 6.58984375 22.34765625 C6.54666016 23.188125 6.50347656 24.02859375 6.45898438 24.89453125 C6.35325832 26.96206296 6.2523308 29.02983906 6.15234375 31.09765625 C3.18234375 31.09765625 0.21234375 31.09765625 -2.84765625 31.09765625 C-2.87231247 26.84351002 -2.89049524 22.58940127 -2.90258789 18.33520508 C-2.90762726 16.88695552 -2.91445878 15.43871108 -2.9230957 13.99047852 C-2.93517872 11.91291037 -2.94088836 9.83540928 -2.9453125 7.7578125 C-2.95054932 6.50621338 -2.95578613 5.25461426 -2.96118164 3.96508789 C-2.81007887 0.14852425 -2.81007887 0.14852425 0 0 Z " fill="#241F54" transform="translate(126.84765625,299.90234375)"/>
<path d="M0 0 C2.97 0 5.94 0 9 0 C10.1734316 2.60130627 11.33892508 5.20568508 12.5 7.8125 C12.83386719 8.55048828 13.16773438 9.28847656 13.51171875 10.04882812 C13.82753906 10.76103516 14.14335937 11.47324219 14.46875 12.20703125 C14.76201172 12.8616333 15.05527344 13.51623535 15.35742188 14.19067383 C16 16 16 16 16 19 C16.66 19 17.32 19 18 19 C18.226875 18.071875 18.45375 17.14375 18.6875 16.1875 C20.1834878 10.88056519 22.64567213 5.96924929 25 1 C27.97 1 30.94 1 34 1 C30 11 26 21 22 31 C18.7 31 15.4 31 12 31 C10.55877811 27.5223346 9.12193967 24.04296214 7.6875 20.5625 C7.28337891 19.58861328 6.87925781 18.61472656 6.46289062 17.61132812 C4.07238099 11.80025185 1.91271463 5.98574449 0 0 Z " fill="#221D51" transform="translate(157,300)"/>
<path d="M0 0 C2.97 0 5.94 0 9 0 C9 2.64 9 5.28 9 8 C11.64 8 14.28 8 17 8 C17 10.31 17 12.62 17 15 C14.36 15 11.72 15 9 15 C9.33 19.62 9.66 24.24 10 29 C14.47702364 30.06537205 14.47702364 30.06537205 17 30 C17.38063221 32.3260857 17.71269945 34.66055264 18 37 C16.28055699 38.71944301 14.09584777 38.29345984 11.75 38.375 C7.49594859 38.35290103 6.37489179 38.28491776 2.875 35.625 C-0.23012155 31.27782984 -0.12087925 28.07524359 -0.0625 22.875 C-0.05798828 22.12089844 -0.05347656 21.36679687 -0.04882812 20.58984375 C-0.03703499 18.72652873 -0.01909942 16.86325445 0 15 C-1.32 15 -2.64 15 -4 15 C-4 12.69 -4 10.38 -4 8 C-2.68 8 -1.36 8 0 8 C0 5.36 0 2.72 0 0 Z " fill="#241F55" transform="translate(252,293)"/>
<path d="M0 0 C2.97 0 5.94 0 9 0 C9.33 0.66 9.66 1.32 10 2 C10.556875 1.67 11.11375 1.34 11.6875 1 C14.30284522 -0.1309601 16.1806646 -0.15662974 19 0 C19 2.64 19 5.28 19 8 C17.88625 8.268125 16.7725 8.53625 15.625 8.8125 C11.78159049 9.65809019 11.78159049 9.65809019 10 13 C9.63648496 15.02542148 9.63648496 15.02542148 9.5859375 17.23046875 C9.52792969 18.43413086 9.52792969 18.43413086 9.46875 19.66210938 C9.42234375 20.91217773 9.42234375 20.91217773 9.375 22.1875 C9.31699219 23.4549707 9.31699219 23.4549707 9.2578125 24.74804688 C9.16363721 26.83167524 9.08073325 28.91580753 9 31 C6.03 31 3.06 31 0 31 C0 20.77 0 10.54 0 0 Z " fill="#252155" transform="translate(227,300)"/>
<path d="M0 0 C1.04220703 -0.01611328 2.08441406 -0.03222656 3.15820312 -0.04882812 C13.93854791 -0.05551154 23.52469208 2.24265084 33.0625 7.25 C33.73796875 7.58451172 34.4134375 7.91902344 35.109375 8.26367188 C38.86269284 10.18096711 41.74359542 12.09808585 44.5625 15.3125 C43.9132959 15.92907471 43.9132959 15.92907471 43.25097656 16.55810547 C38.7955857 20.88644146 34.9824734 25.4338507 31.3125 30.4375 C30.796875 31.12714844 30.28125 31.81679687 29.75 32.52734375 C27.15596184 36.02394673 24.716577 39.52073431 22.5625 43.3125 C20.5825 42.8175 20.5825 42.8175 18.5625 42.3125 C19.0575 41.3225 19.0575 41.3225 19.5625 40.3125 C20.5525 40.3125 21.5425 40.3125 22.5625 40.3125 C22.78292969 39.64347656 23.00335938 38.97445312 23.23046875 38.28515625 C24.9775084 34.38633756 27.34054215 31.17303272 29.875 27.75 C30.34873047 27.09064453 30.82246094 26.43128906 31.31054688 25.75195312 C34.08118309 21.9807041 36.83807311 19.19570843 40.5625 16.3125 C40.5625 15.6525 40.5625 14.9925 40.5625 14.3125 C38.3590194 13.1564273 36.15046844 12.01265279 33.9375 10.875 C33.32003906 10.54951172 32.70257813 10.22402344 32.06640625 9.88867188 C25.96662216 6.77457158 20.43141746 6.23170839 13.6875 5.75 C12.53507812 5.66621094 11.38265625 5.58242187 10.1953125 5.49609375 C8.89207031 5.40521484 8.89207031 5.40521484 7.5625 5.3125 C8.8825 4.6525 10.2025 3.9925 11.5625 3.3125 C-8.7771571 0.24236308 -29.58229168 5.10458108 -46.59765625 16.796875 C-57.7355617 25.04717533 -65.77064126 34.29687207 -72.4375 46.3125 C-73.0975 45.9825 -73.7575 45.6525 -74.4375 45.3125 C-72.98932134 41.20932714 -70.99096473 37.80350552 -68.4375 34.3125 C-67.89222656 33.55710938 -67.34695312 32.80171875 -66.78515625 32.0234375 C-54.40218798 15.6647514 -35.65472823 4.17721974 -15.43945312 0.70507812 C-10.29190601 0.03191159 -5.18491274 -0.01597324 0 0 Z " fill="#973CBE" transform="translate(158.4375,97.6875)"/>
<path d="M0 0 C0.82371094 -0.00644531 1.64742188 -0.01289062 2.49609375 -0.01953125 C9.3029225 0.12273366 16.0156951 1.15402496 21.25 5.75 C22.054375 6.6575 22.85875 7.565 23.6875 8.5 C25.03185074 9.65733421 26.38684587 10.80237349 27.75 11.9375 C32.94178899 16.46317267 36.01891316 20.47983815 36.6875 27.5 C33.85987268 24.83395138 31.50176673 22.31775521 29.375 19.0625 C25.18466354 13.07071048 19.30306364 9.01447555 12.296875 6.9609375 C6.78092748 5.98656354 1.2606338 6.25660446 -4.3125 6.5 C-5.28832031 6.51933594 -6.26414062 6.53867188 -7.26953125 6.55859375 C-17.62887368 7.04766142 -25.7819181 11.916934 -34.31640625 17.4609375 C-34.97511719 17.80382812 -35.63382812 18.14671875 -36.3125 18.5 C-36.9725 18.17 -37.6325 17.84 -38.3125 17.5 C-35.62985555 10.49705023 -27.42660571 7.08363668 -21.109375 3.87109375 C-13.99318314 0.91163481 -7.65293054 0.05660452 0 0 Z " fill="#692DAE" transform="translate(294.3125,109.5)"/>
<path d="M0 0 C0.99 0.495 0.99 0.495 2 1 C1.68361572 2.09163452 1.68361572 2.09163452 1.36083984 3.20532227 C0.72596868 5.40015766 0.09292128 7.59552098 -0.53881836 9.79125977 C-1.26722486 12.32029891 -1.99986034 14.8481236 -2.73657227 17.37475586 C-4.51319694 23.50765203 -6.19007633 29.63273197 -7.55078125 35.875 C-7.78780762 36.92228271 -8.02483398 37.96956543 -8.26904297 39.04858398 C-8.7057688 41.01767837 -9.11121322 42.99404299 -9.48095703 44.97680664 C-10.92019921 51.31951345 -10.92019921 51.31951345 -13.91455078 53.20654297 C-16.26653349 54.02214581 -18.55604542 54.53593255 -21 55 C-22.84078125 55.58394531 -22.84078125 55.58394531 -24.71875 56.1796875 C-30.54319887 57.57512837 -36.55169458 57.20997579 -42.5 57.125 C-43.70398438 57.11597656 -44.90796875 57.10695313 -46.1484375 57.09765625 C-49.0991679 57.07423775 -52.04947689 57.04143993 -55 57 C-55 56.67 -55 56.34 -55 56 C-53.741875 55.96261719 -52.48375 55.92523438 -51.1875 55.88671875 C-32.33268445 55.92135378 -32.33268445 55.92135378 -15 50 C-13.50491916 47.39639518 -12.66898632 45.0135673 -12.09765625 42.078125 C-10.80340698 35.89912846 -9.10360594 29.8372984 -7.4375 23.75 C-6.80968134 21.45353907 -6.18332235 19.15667847 -5.55859375 16.859375 C-5.28329834 15.85358398 -5.00800293 14.84779297 -4.72436523 13.81152344 C-4.05629783 11.21851223 -3.49633421 8.63066161 -3 6 C-3.64066406 6.54269531 -4.28132813 7.08539063 -4.94140625 7.64453125 C-9.83672855 11.69356833 -14.10272043 14.57790303 -20 17 C-22.57763816 18.76043742 -25.08188188 20.59235146 -27.5703125 22.4765625 C-30.10924265 24.0684962 -32.05110994 24.61171199 -35 25 C-33.74458443 22.48916886 -32.49936512 22.12874554 -30 21 C-31.77503906 21.16048828 -31.77503906 21.16048828 -33.5859375 21.32421875 C-47.93958433 22.47883048 -56.36654367 21.03449268 -68 12 C-64.333366 12 -63.20635085 13.07080642 -60.125 15 C-50.36414179 19.99310001 -38.73779174 19.52278265 -28.21484375 17.14453125 C-18.00394866 13.50930372 -7.99623826 7.31084641 0 0 Z " fill="#5C2F8B" transform="translate(195,201)"/>
<path d="M0 0 C3.16872216 0.68885264 4.96142228 2.13674555 7.15625 4.46875 C8.7110169 7.57828379 8.44269437 10.03141761 8.15625 13.46875 C5.07932692 19.00721154 5.07932692 19.00721154 2.15625 20.46875 C-4.97605769 21.17028846 -4.97605769 21.17028846 -8.78125 18.09375 C-11.9835893 14.01804544 -12.36546797 11.68592968 -11.84375 6.46875 C-8.73903642 0.9603872 -6.06890656 -0.40459377 0 0 Z " fill="#F4F4F8" transform="translate(348.84375,305.53125)"/>
<path d="M0 0 C14.72603431 -0.27270434 14.72603431 -0.27270434 18 2 C19.56700442 5.13400885 19.85164561 8.63155095 19 12 C16.19185801 15.04701986 14.59628996 15.93440154 10.44921875 16.390625 C5.22460938 16.1953125 5.22460938 16.1953125 0 16 C0 10.72 0 5.44 0 0 Z " fill="#FCFBFD" transform="translate(282,297)"/>
<path d="M0 0 C1.65 0 3.3 0 5 0 C5 1.32 5 2.64 5 4 C5.66 4 6.32 4 7 4 C7.33 3.01 7.66 2.02 8 1 C10.70879335 -0.35439668 13.00933268 -0.06501451 16 0 C16 1.65 16 3.3 16 5 C14.329375 5.4021875 14.329375 5.4021875 12.625 5.8125 C8.78159049 6.65809019 8.78159049 6.65809019 7 10 C6.6349209 12.22131423 6.6349209 12.22131423 6.5859375 14.66796875 C6.54726563 15.56064453 6.50859375 16.45332031 6.46875 17.37304688 C6.4378125 18.30181641 6.406875 19.23058594 6.375 20.1875 C6.33632813 21.12787109 6.29765625 22.06824219 6.2578125 23.03710938 C6.16356813 25.3578771 6.07795975 27.67863748 6 30 C4.02 30 2.04 30 0 30 C0 20.1 0 10.2 0 0 Z " fill="#242052" transform="translate(313,301)"/>
<path d="M0 0 C2.5 1.5625 2.5 1.5625 4 4 C4.5625 7.4375 4.5625 7.4375 4 11 C1.52942103 14.41521211 0.08849737 15.77785768 -4.0625 16.625 C-7 16 -7 16 -9.375 14 C-11.598584 9.89492185 -11.5234603 7.63636264 -11 3 C-8.88355448 -1.23289104 -4.17330147 -0.73893467 0 0 Z " fill="#F4F3F7" transform="translate(107,308)"/>
<path d="M0 0 C0.763125 0.309375 1.52625 0.61875 2.3125 0.9375 C4.18789677 1.67893593 6.08684652 2.36228217 8 3 C8.66 2.67 9.32 2.34 10 2 C20.43555847 18.03597485 24.2136827 36.0910589 20.31640625 55.0859375 C19.40885813 58.19645513 18.34289703 61.05320401 17 64 C16.59910156 64.92296875 16.19820313 65.8459375 15.78515625 66.796875 C11.65367237 75.27539843 4.89667784 83.7355481 -3 89 C-3 88.01 -3 87.02 -3 86 C-1.34254923 84.61315344 0.31760282 83.22938981 1.9921875 81.86328125 C13.27428797 71.39331642 18.37950115 55.89541689 19.16015625 40.9296875 C19.34755424 33.90633668 18.58318445 28.48977374 16 22 C15.649375 20.7625 15.29875 19.525 14.9375 18.25 C13.73987542 14.01728594 13.73987542 14.01728594 12 10 C10.67013875 9.32643391 9.33617416 8.66095448 8 8 C6.54958706 6.85396204 5.13288702 5.664172 3.75 4.4375 C2.69039063 3.50744141 2.69039063 3.50744141 1.609375 2.55859375 C1.07828125 2.04425781 0.5471875 1.52992187 0 1 C0 0.67 0 0.34 0 0 Z " fill="#4D4586" transform="translate(314,115)"/>
<path d="M0 0 C3.98208401 3.04512307 7.50468785 6.41404766 11 10 C11.72703125 10.68964844 12.4540625 11.37929687 13.203125 12.08984375 C15.82043641 14.87215958 16.73551314 17.40619523 18 21 C17.67 21.66 17.34 22.32 17 23 C16.62488281 22.48050781 16.24976563 21.96101563 15.86328125 21.42578125 C12.82660744 17.2876439 9.78169502 13.4980679 6 10 C5.175 9.154375 4.35 8.30875 3.5 7.4375 C-5.40974901 0.26899636 -18.099965 0.27984686 -29 0 C-28 -2 -28 -2 -26.31640625 -2.609375 C-17.73121831 -4.05713013 -7.91884917 -3.85086893 0 0 Z " fill="#852EC2" transform="translate(313,114)"/>
<path d="M0 0 C-1.59328125 0.54527344 -1.59328125 0.54527344 -3.21875 1.1015625 C-10.95525905 3.82310849 -17.90568871 6.32055966 -24 12 C-24.61101562 12.52207031 -25.22203125 13.04414063 -25.8515625 13.58203125 C-33.07585413 20.14537705 -36.27328362 28.82227171 -39 38 C-39.33 38 -39.66 38 -40 38 C-40.24450088 30.21672191 -40.18845267 22.53800365 -38 15 C-37.34 14.34 -36.68 13.68 -36 13 C-36 15.97 -36 18.94 -36 22 C-35.37351562 21.2059375 -34.74703125 20.411875 -34.1015625 19.59375 C-33.28429687 18.5728125 -32.46703125 17.551875 -31.625 16.5 C-30.81289062 15.4790625 -30.00078125 14.458125 -29.1640625 13.40625 C-28.44992188 12.6121875 -27.73578125 11.818125 -27 11 C-26.34 11 -25.68 11 -25 11 C-25 10.34 -25 9.68 -25 9 C-19.05614224 3.74659036 -8.05092873 -2.92587196 0 0 Z " fill="#291460" transform="translate(152,135)"/>
<path d="M0 0 C0.721875 0.825 1.44375 1.65 2.1875 2.5 C2.5175 2.83 2.8475 3.16 3.1875 3.5 C3.25976502 5.35287502 3.2713122 7.20833878 3.25 9.0625 C3.24097656 10.07441406 3.23195313 11.08632813 3.22265625 12.12890625 C3.21105469 12.91136719 3.19945312 13.69382812 3.1875 14.5 C2.5275 14.83 1.8675 15.16 1.1875 15.5 C0.8575 14.51 0.5275 13.52 0.1875 12.5 C-0.4725 12.83 -1.1325 13.16 -1.8125 13.5 C-2.30078125 11.48177083 -2.7890625 9.46354167 -3.27734375 7.4453125 C-4.13704894 4.32025276 -4.54987434 3.6563248 -7.4375 1.9375 C-10.95666113 0.43859804 -14.02148871 -0.12089887 -17.8125 -0.5 C-17.4825 -1.16 -17.1525 -1.82 -16.8125 -2.5 C-10.43822445 -3.68842426 -5.14109164 -4.56985924 0 0 Z " fill="#211C4F" transform="translate(303.8125,295.5)"/>
<path d="M0 0 C0.90105469 0.01804687 1.80210937 0.03609375 2.73046875 0.0546875 C3.41753906 0.07789063 4.10460937 0.10109375 4.8125 0.125 C4.5546875 2.03125 4.5546875 2.03125 3.8125 4.125 C2.0703125 5.03125 2.0703125 5.03125 -0.0625 5.625 C-2.61241953 6.48713737 -4.07301536 7.02528757 -6.125 8.8125 C-7.68891368 12.21631213 -7.87680374 15.39664487 -8.1875 19.125 C-8.5175 17.805 -8.8475 16.485 -9.1875 15.125 C-10.1775 15.455 -11.1675 15.785 -12.1875 16.125 C-12.81377475 8.139997 -12.81377475 8.139997 -10.375 4.1875 C-6.80514547 0.82163716 -4.8249051 -0.12532221 0 0 Z " fill="#1A1549" transform="translate(345.1875,300.875)"/>
<path d="M0 0 C2.4835019 0.92268994 4.72617621 1.81781885 6.9375 3.2890625 C12.94881524 7.18275533 18.59655 7.48420144 25.5625 7.5 C26.8918457 7.50894287 26.8918457 7.50894287 28.24804688 7.51806641 C33.632102 7.41714035 38.01909497 6.59124753 43.00756836 4.54101562 C45.36422785 3.90109926 46.71394347 4.22934004 49 5 C47.27898082 6.32316536 45.54781907 7.63314524 43.8125 8.9375 C42.36810547 10.03384766 42.36810547 10.03384766 40.89453125 11.15234375 C38.11040201 12.92952746 36.24332415 13.62645444 33 14 C34.25541557 11.48916886 35.50063488 11.12874554 38 10 C36.81664062 10.10699219 35.63328125 10.21398437 34.4140625 10.32421875 C20.35366105 11.45524173 11.23346006 10.32138175 0 1 C0 0.67 0 0.34 0 0 Z " fill="#412674" transform="translate(127,212)"/>
<path d="M0 0 C4.29 0 8.58 0 13 0 C13 0.33 13 0.66 13 1 C9.04 1 5.08 1 1 1 C1 6.28 1 11.56 1 17 C4.34125 16.8453125 4.34125 16.8453125 7.75 16.6875 C9.00296875 16.62949219 10.2559375 16.57148438 11.546875 16.51171875 C15.06029714 15.99106456 16.5639149 15.53161785 19 13 C19.80946422 9.89802603 19.80946422 9.89802603 20 7 C20.33 7 20.66 7 21 7 C21.33 8.65 21.66 10.3 22 12 C22.66 11.67 23.32 11.34 24 11 C24.8125 13.1875 24.8125 13.1875 25 16 C22.6681876 19.01763957 20.93025833 20.67549128 17.3125 21.9375 C16.549375 21.958125 15.78625 21.97875 15 22 C14.34 21.34 13.68 20.68 13 20 C13.33 19.34 13.66 18.68 14 18 C9.38 18 4.76 18 0 18 C0 12.06 0 6.12 0 0 Z " fill="#4C4871" transform="translate(281,296)"/>
<path d="M0 0 C0.763125 0.309375 1.52625 0.61875 2.3125 0.9375 C4.18789677 1.67893593 6.08684652 2.36228217 8 3 C8.66 2.67 9.32 2.34 10 2 C15.93183864 11.11525871 20.17421797 20.05838805 21 31 C20.34 31 19.68 31 19 31 C17.56115664 26.76980052 16.1558363 22.55001047 14.9375 18.25 C13.73987542 14.01728594 13.73987542 14.01728594 12 10 C10.67013875 9.32643391 9.33617416 8.66095448 8 8 C6.54958706 6.85396204 5.13288702 5.664172 3.75 4.4375 C3.04359375 3.81746094 2.3371875 3.19742188 1.609375 2.55859375 C1.07828125 2.04425781 0.5471875 1.52992187 0 1 C0 0.67 0 0.34 0 0 Z " fill="#605695" transform="translate(314,115)"/>
<path d="M0 0 C5.51494938 5.51494938 6.1880483 13.04010246 6.375 20.625 C6.24560563 26.04662431 5.56554904 31.15134768 3 36 C2.01 36.495 2.01 36.495 1 37 C1.66 28.09 2.32 19.18 3 10 C2.34 10 1.68 10 1 10 C0.67 6.7 0.34 3.4 0 0 Z " fill="#5045A5" transform="translate(300,146)"/>
<path d="M0 0 C0.66 0.33 1.32 0.66 2 1 C1.39671875 1.94359375 0.7934375 2.8871875 0.171875 3.859375 C-6.68947923 14.79658273 -10.84759614 25.19886127 -13 38 C-13.66 38 -14.32 38 -15 38 C-15.60745675 23.72476626 -9.11126432 10.74661945 0 0 Z " fill="#8C2ACA" transform="translate(125,125)"/>
<path d="M0 0 C0.99 0.33 1.98 0.66 3 1 C2.154375 1.78761719 1.30875 2.57523437 0.4375 3.38671875 C-7.18118478 10.64587261 -12.97628392 17.72661473 -18 27 C-18.66 26.67 -19.32 26.34 -20 26 C-16.54890603 16.22190042 -8.58739475 5.79149878 0 0 Z " fill="#8E3CB8" transform="translate(104,117)"/>
<path d="M0 0 C1.08667969 -0.00257812 2.17335937 -0.00515625 3.29296875 -0.0078125 C4.42863281 -0.00007813 5.56429687 0.00765625 6.734375 0.015625 C7.85457031 0.00789063 8.97476563 0.00015625 10.12890625 -0.0078125 C15.96410073 0.005966 20.98500506 0.26296427 26.484375 2.265625 C26.484375 2.925625 26.484375 3.585625 26.484375 4.265625 C27.474375 4.595625 28.464375 4.925625 29.484375 5.265625 C26.54050877 6.73755812 24.11047464 6.11498673 20.859375 5.828125 C19.67085937 5.72628906 18.48234375 5.62445313 17.2578125 5.51953125 C16.34257812 5.43574219 15.42734375 5.35195312 14.484375 5.265625 C15.804375 4.605625 17.124375 3.945625 18.484375 3.265625 C12.43617688 2.37659588 6.59214014 2.14214117 0.484375 2.203125 C-0.38574219 2.20763672 -1.25585938 2.21214844 -2.15234375 2.21679688 C-4.27346793 2.2284514 -6.3945561 2.24638143 -8.515625 2.265625 C-5.13971985 0.01502157 -3.95439661 0.00903715 0 0 Z " fill="#902EBE" transform="translate(151.515625,97.734375)"/>
<path d="M0 0 C0.66 0.33 1.32 0.66 2 1 C1.67 2.65 1.34 4.3 1 6 C-0.33190519 6.46246708 -1.6656307 6.91969155 -3 7.375 C-3.7425 7.63023437 -4.485 7.88546875 -5.25 8.1484375 C-6.1575 8.42945313 -7.065 8.71046875 -8 9 C-9.1446875 9.3609375 -10.289375 9.721875 -11.46875 10.09375 C-17.39411983 11.54585544 -23.44031461 11.21156693 -29.5 11.125 C-30.70398438 11.11597656 -31.90796875 11.10695313 -33.1484375 11.09765625 C-36.0991679 11.07423775 -39.04947689 11.04143993 -42 11 C-42 10.67 -42 10.34 -42 10 C-40.741875 9.96261719 -39.48375 9.92523438 -38.1875 9.88671875 C-19.40132182 9.82116478 -19.40132182 9.82116478 -2 4 C-0.73195434 1.9664052 -0.73195434 1.9664052 0 0 Z " fill="#7838A5" transform="translate(182,247)"/>
<path d="M0 0 C0.33 0 0.66 0 1 0 C1.33 1.98 1.66 3.96 2 6 C2.66 6 3.32 6 4 6 C5.54008427 8.3101264 6.82034812 10.52557951 7.8046875 13.125 C8.8446978 15.2155102 8.8446978 15.2155102 11.1640625 15.609375 C12.38222656 15.67898438 12.38222656 15.67898438 13.625 15.75 C14.85089844 15.83507812 14.85089844 15.83507812 16.1015625 15.921875 C16.72804688 15.94765625 17.35453125 15.9734375 18 16 C18 16.33 18 16.66 18 17 C17.2575 17.144375 16.515 17.28875 15.75 17.4375 C13.08093097 17.89602265 13.08093097 17.89602265 11 18.8125 C9 19 9 19 6.5 17.3125 C5.675 16.549375 4.85 15.78625 4 15 C3.236875 14.484375 2.47375 13.96875 1.6875 13.4375 C-1.1194949 9.38295182 -0.2966663 4.77962379 0 0 Z " fill="#272256" transform="translate(332,310)"/>
<path d="M0 0 C0.66 0.33 1.32 0.66 2 1 C-5.71038627 7.36152437 -15.30541566 8.68701779 -25 8 C-25.33 7.34 -25.66 6.68 -26 6 C-24.42274653 5.29866401 -22.83788667 4.614417 -21.25 3.9375 C-19.92742187 3.36322266 -19.92742187 3.36322266 -18.578125 2.77734375 C-15.84743691 1.95399992 -14.63098653 2.0226008 -12 3 C-12.33 3.33 -12.66 3.66 -13 4 C-9.46078236 3.56838809 -6.47350318 2.85497316 -3.25 1.375 C-1.64125 0.694375 -1.64125 0.694375 0 0 Z " fill="#231F54" transform="translate(171,196)"/>
<path d="M0 0 C0.70382813 0.144375 1.40765625 0.28875 2.1328125 0.4375 C12.50867886 2.38805451 22.56198149 2.67008296 33 1 C35.67347246 0.91898568 38.32441 0.95305982 41 1 C36.78196554 5.21803446 31.17449002 4.96029152 25.52124023 5.03100586 C22.98927038 4.9836631 20.46662898 4.87771424 17.9375 4.75 C16.6680957 4.70939453 16.6680957 4.70939453 15.37304688 4.66796875 C9.67807905 4.39573436 5.24034693 3.25365209 0 1 C0 0.67 0 0.34 0 0 Z " fill="#8C2ECC" transform="translate(111,231)"/>
<path d="M0 0 C3.81701322 0.04788368 3.81701322 0.04788368 6.125 1.5625 C7.125 3.25 7.125 3.25 7.125 6.25 C2.505 6.25 -2.115 6.25 -6.875 6.25 C-4.49089404 0.2897351 -4.49089404 0.2897351 0 0 Z " fill="#E4E3EC" transform="translate(206.875,306.75)"/>
<path d="M0 0 C-1.59328125 0.54527344 -1.59328125 0.54527344 -3.21875 1.1015625 C-10.9936106 3.83751912 -17.80419059 6.39358314 -24 12 C-25.33321463 13.12514067 -26.66654467 14.25014461 -28 15.375 C-28.99 16.24125 -29.98 17.1075 -31 18 C-29.52307692 13.32307692 -29.52307692 13.32307692 -26.875 11.6875 C-26.25625 11.460625 -25.6375 11.23375 -25 11 C-25 10.34 -25 9.68 -25 9 C-19.05614224 3.74659036 -8.05092873 -2.92587196 0 0 Z " fill="#362562" transform="translate(152,135)"/>
<path d="M0 0 C1.07572266 0.00064453 2.15144531 0.00128906 3.25976562 0.00195312 C7.97272246 0.02824985 12.32578349 0.13973891 16.9375 1.1875 C16.9375 1.5175 16.9375 1.8475 16.9375 2.1875 C16.35371582 2.17702637 15.76993164 2.16655273 15.16845703 2.15576172 C12.46651699 2.11361892 9.76464649 2.08799195 7.0625 2.0625 C6.1446875 2.04574219 5.226875 2.02898437 4.28125 2.01171875 C-1.31377467 1.97231717 -6.41188489 2.4626862 -11.86328125 3.7421875 C-14.98909236 4.37512261 -17.88441957 4.32567741 -21.0625 4.1875 C-14.29016832 -0.32738779 -7.88123594 -0.09004419 0 0 Z " fill="#57538D" transform="translate(274.0625,94.8125)"/>
<path d="M0 0 C0.89203125 0.01804687 1.7840625 0.03609375 2.703125 0.0546875 C3.71632812 0.08949219 3.71632812 0.08949219 4.75 0.125 C4.75 0.785 4.75 1.445 4.75 2.125 C3.96496094 2.19976562 3.17992187 2.27453125 2.37109375 2.3515625 C-5.10421483 3.28712259 -9.0241623 4.66162422 -14.25 10.125 C-14.25 7.125 -14.25 7.125 -12 4.5625 C-7.94752401 0.97053264 -5.42491652 -0.14276096 0 0 Z " fill="#2E2B53" transform="translate(207.25,299.875)"/>
<path d="M0 0 C0.66 0 1.32 0 2 0 C2.97159933 7.68604474 3.10920422 15.25863399 3 23 C2.34 23 1.68 23 1 23 C0.02840067 15.31395526 -0.10920422 7.74136601 0 0 Z " fill="#7137A3" transform="translate(110,163)"/>
<path d="M0 0 C1.75570313 0.01353516 1.75570313 0.01353516 3.546875 0.02734375 C4.43890625 0.03894531 5.3309375 0.05054687 6.25 0.0625 C6.25 1.0525 6.25 2.0425 6.25 3.0625 C0.31 3.0625 -5.63 3.0625 -11.75 3.0625 C-10.75 1.0625 -10.75 1.0625 -9.109375 0.44140625 C-6.04728012 -0.05035402 -3.10003047 -0.0310003 0 0 Z " fill="#9033CE" transform="translate(295.75,110.9375)"/>
<path d="M0 0 C-1.60790685 3.98193402 -4.3803804 6.71258185 -7.375 9.6875 C-7.85710937 10.18572266 -8.33921875 10.68394531 -8.8359375 11.19726562 C-11.39323992 13.75804264 -13.31046316 15.62405193 -17 16 C-3.72340426 0 -3.72340426 0 0 0 Z " fill="#2E295E" transform="translate(242,163)"/>
<path d="M0 0 C0.33 0.99 0.66 1.98 1 3 C-2.56045177 4.18681726 -5.43808337 4.09689832 -9.1875 4.0625 C-10.45980469 4.05347656 -11.73210937 4.04445312 -13.04296875 4.03515625 C-14.50669922 4.01775391 -14.50669922 4.01775391 -16 4 C-13.21769572 2.14513048 -11.15636393 1.27537888 -8 0.3125 C-6.700625 -0.09548828 -6.700625 -0.09548828 -5.375 -0.51171875 C-3 -1 -3 -1 0 0 Z " fill="#514E89" transform="translate(273,215)"/>
<path d="M0 0 C0 0.66 0 1.32 0 2 C-2.10260341 3.14878332 -4.20696539 4.29411192 -6.3125 5.4375 C-6.90740234 5.76298828 -7.50230469 6.08847656 -8.11523438 6.42382812 C-10.72373626 7.83737384 -13.17845899 9.05948633 -16 10 C-14.44499019 6.18315774 -11.96404505 3.80804268 -9 1 C-8.34 1.33 -7.68 1.66 -7 2 C-2.86666667 0 -2.86666667 0 0 0 Z " fill="#492780" transform="translate(259,129)"/>
<path d="M0 0 C2.5395468 2.5395468 3.12617196 4.86490762 4.3125 8.25 C5.7729723 12.19981463 7.02547708 15.49766844 9.875 18.625 C10.57625 19.40875 11.2775 20.1925 12 21 C11.67 21.99 11.34 22.98 11 24 C11 23.34 11 22.68 11 22 C10.01 21.67 9.02 21.34 8 21 C6.46484375 18.671875 6.46484375 18.671875 4.9375 15.75 C4.43089844 14.79609375 3.92429687 13.8421875 3.40234375 12.859375 C1.20461239 8.37820688 -0.28825071 5.04438742 0 0 Z " fill="#583687" transform="translate(112,186)"/>
<path d="M0 0 C0.66 0.66 1.32 1.32 2 2 C1.53494122 4.57272901 0.97416097 6.93820417 0.25 9.4375 C0.06695312 10.11876953 -0.11609375 10.80003906 -0.3046875 11.50195312 C-1.20900053 14.75302216 -2.11335024 17.17002536 -4 20 C-4.5644718 12.66186666 -2.55327104 6.83911885 0 0 Z " fill="#642A98" transform="translate(187,228)"/>
<path d="M0 0 C0.66 0.33 1.32 0.66 2 1 C-3.13122145 6.25404324 -8.4069024 11.23991693 -14 16 C-14 13 -14 13 -11.69921875 10.37109375 C-10.7029415 9.38545764 -9.6986627 8.40785916 -8.6875 7.4375 C-8.18798828 6.94314453 -7.68847656 6.44878906 -7.17382812 5.93945312 C-4.87916575 3.69341936 -2.67939362 1.78626241 0 0 Z " fill="#3D0E7D" transform="translate(141,112)"/>
<path d="M0 0 C0.66 0 1.32 0 2 0 C2 1.98 2 3.96 2 6 C-5.59 6 -13.18 6 -21 6 C-21 5.67 -21 5.34 -21 5 C-10.605 4.505 -10.605 4.505 0 4 C0 2.68 0 1.36 0 0 Z " fill="#2E2B51" transform="translate(221,312)"/>
<path d="M0 0 C-0.56847656 0.31453125 -1.13695313 0.6290625 -1.72265625 0.953125 C-2.49480469 1.38109375 -3.26695313 1.8090625 -4.0625 2.25 C-4.87976563 2.70117188 -5.69703125 3.15234375 -6.5390625 3.6171875 C-8.69879068 4.83074905 -10.81673378 6.09538156 -12.9375 7.375 C-13.948125 7.91125 -14.95875 8.4475 -16 9 C-16.66 8.67 -17.32 8.34 -18 8 C-16.41906946 6.87162591 -14.83515284 5.74743482 -13.25 4.625 C-12.36828125 3.99851562 -11.4865625 3.37203125 -10.578125 2.7265625 C-4.24367622 -1.51559865 -4.24367622 -1.51559865 0 0 Z " fill="#9537BF" transform="translate(123,108)"/>
<path d="M0 0 C0.66 0 1.32 0 2 0 C2.50636607 1.74816858 3.00484619 3.49862263 3.5 5.25 C3.7784375 6.22453125 4.056875 7.1990625 4.34375 8.203125 C5 11 5 11 5 15 C4.34 15 3.68 15 3 15 C1.094753 9.89665983 -0.42589023 5.53657294 0 0 Z " fill="#664092" transform="translate(330,131)"/>
<path d="M0 0 C6.625 0.75 6.625 0.75 10 3 C10 3.66 10 4.32 10 5 C1.42857143 4.14285714 1.42857143 4.14285714 -2 2 C-1.34 2 -0.68 2 0 2 C0 1.34 0 0.68 0 0 Z " fill="#892CC4" transform="translate(302,112)"/>
<path d="M0 0 C2.17854707 3.2678206 3.49760034 6.38058265 5 10 C4.34 10 3.68 10 3 10 C3.99 11.485 3.99 11.485 5 13 C4.625 15.1875 4.625 15.1875 4 17 C-0.60244648 6.16819572 -0.60244648 6.16819572 -1 1 C-0.67 0.67 -0.34 0.34 0 0 Z " fill="#8837B5" transform="translate(78,195)"/>
<path d="M0 0 C2.64 0 5.28 0 8 0 C7.67 1.32 7.34 2.64 7 4 C4.36 4 1.72 4 -1 4 C-0.67 2.68 -0.34 1.36 0 0 Z " fill="#130F44" transform="translate(342,301)"/>
<path d="M0 0 C-3.74525799 3.74525799 -7.98270909 3.68909949 -13 4 C-13 3.34 -13 2.68 -13 2 C-8.50343896 -0.24828052 -4.92127034 -0.16682272 0 0 Z " fill="#982ED6" transform="translate(152,232)"/>
<path d="M0 0 C0 4.33174693 -2.65822583 6.22353653 -5.5 9.1875 C-6.28697266 10.02571289 -6.28697266 10.02571289 -7.08984375 10.88085938 C-8.38661613 12.26015364 -9.69246259 13.63090644 -11 15 C-11.66 14.67 -12.32 14.34 -13 14 C-8.83295817 9.14256071 -4.58155004 4.46980492 0 0 Z " fill="#302D62" transform="translate(219,120)"/>
<path d="M0 0 C3.76867646 0.55151363 5.34591504 2.0397255 7.8125 4.875 C8.43769531 5.57367188 9.06289062 6.27234375 9.70703125 6.9921875 C10.13371094 7.65476563 10.56039062 8.31734375 11 9 C10.67 9.99 10.34 10.98 10 12 C6.08552441 8.27856704 2.50346649 4.85967024 0 0 Z " fill="#9B40C1" transform="translate(92,228)"/>
<path d="M0 0 C0.66 0.33 1.32 0.66 2 1 C-0.31 3.97 -2.62 6.94 -5 10 C-5.66 9.67 -6.32 9.34 -7 9 C-5.64978174 4.58110387 -3.73884332 2.65654657 0 0 Z " fill="#322E59" transform="translate(340,301)"/>
<path d="M0 0 C0.66 0.66 1.32 1.32 2 2 C-2.26311718 6.12989477 -5.28758534 6.61271765 -11 7 C-7.54319097 4.23455278 -3.85658398 2.15078722 0 0 Z " fill="#643594" transform="translate(185,209)"/>
<path d="M0 0 C1.19882813 0.15275391 1.19882813 0.15275391 2.421875 0.30859375 C3.02515625 0.39238281 3.6284375 0.47617188 4.25 0.5625 C3.92 1.2225 3.59 1.8825 3.25 2.5625 C-0.38 2.5625 -4.01 2.5625 -7.75 2.5625 C-8.08 1.9025 -8.41 1.2425 -8.75 0.5625 C-5.62819599 -0.40411363 -3.22916205 -0.42738909 0 0 Z " fill="#3A385E" transform="translate(153.75,201.4375)"/>
<path d="M0 0 C0.33 0.99 0.66 1.98 1 3 C-0.75 5.875 -0.75 5.875 -3 9 C-4.01059521 10.66026356 -5.01453001 12.32470102 -6 14 C-6.33 13.01 -6.66 12.02 -7 11 C-5.56640625 8.30078125 -5.56640625 8.30078125 -3.5625 5.3125 C-2.57443359 3.82169922 -2.57443359 3.82169922 -1.56640625 2.30078125 C-1.04949219 1.54152344 -0.53257812 0.78226563 0 0 Z " fill="#2A2754" transform="translate(197,145)"/>
<path d="M0 0 C0.66 0 1.32 0 2 0 C0.54955729 4.10958767 -1.51110752 7.43258745 -4 11 C-5.32 10.67 -6.64 10.34 -8 10 C-7.67 9.34 -7.34 8.68 -7 8 C-6.01 8 -5.02 8 -4 8 C-3.566875 6.8553125 -3.566875 6.8553125 -3.125 5.6875 C-2 3 -2 3 0 0 Z " fill="#8C3CB3" transform="translate(185,130)"/>
<path d="M0 0 C0.66 0.33 1.32 0.66 2 1 C0.02 3.31 -1.96 5.62 -4 8 C-4.33 7.01 -4.66 6.02 -5 5 C-3.35 3.35 -1.7 1.7 0 0 Z " fill="#363271" transform="translate(225,114)"/>
<path d="M0 0 C0.67546875 0.20496094 1.3509375 0.40992188 2.046875 0.62109375 C2.93890625 0.89050781 3.8309375 1.15992188 4.75 1.4375 C5.63171875 1.70433594 6.5134375 1.97117188 7.421875 2.24609375 C9.60565835 2.88468494 11.78835498 3.46775833 14 4 C14 4.66 14 5.32 14 6 C11.87308203 5.55065113 9.74849961 5.09023527 7.625 4.625 C6.44164062 4.36976563 5.25828125 4.11453125 4.0390625 3.8515625 C1 3 1 3 -1 1 C-0.67 0.67 -0.34 0.34 0 0 Z " fill="#9E4DC2" transform="translate(124,251)"/>
<path d="M0 0 C0.33 0.66 0.66 1.32 1 2 C0.00390625 3.9453125 0.00390625 3.9453125 -1.4375 6.125 C-1.91058594 6.84945312 -2.38367188 7.57390625 -2.87109375 8.3203125 C-3.24363281 8.87460938 -3.61617188 9.42890625 -4 10 C-4.66 9.67 -5.32 9.34 -6 9 C-4.68775452 5.06326356 -3.08089673 2.77280706 0 0 Z " fill="#7F2FAC" transform="translate(90,134)"/>
<path d="M0 0 C0.99 0.33 1.98 0.66 3 1 C2.6875 4.375 2.6875 4.375 2 8 C1.01 8.66 0.02 9.32 -1 10 C-0.67 6.7 -0.34 3.4 0 0 Z " fill="#47439A" transform="translate(302,173)"/>
<path d="M0 0 C0.33 0 0.66 0 1 0 C1.125 7.75 1.125 7.75 0 10 C-0.66 10 -1.32 10 -2 10 C-2.25 3.375 -2.25 3.375 0 0 Z " fill="#8128BF" transform="translate(112,153)"/>
<path d="M0 0 C2.96175123 0.61277612 4.38058783 1.25372522 7 3 C7 3.66 7 4.32 7 5 C7.66 5 8.32 5 9 5 C9.33 6.32 9.66 7.64 10 9 C8.70391053 8.06862408 7.41328368 7.1296434 6.125 6.1875 C5.40570313 5.66542969 4.68640625 5.14335937 3.9453125 4.60546875 C2 3 2 3 0 0 Z " fill="#4D237A" transform="translate(288,130)"/>
<path d="M0 0 C4.42700422 1.39134418 6.99413292 3.47884142 10 7 C10 7.99 10 8.98 10 10 C6.66666667 6.66666667 3.33333333 3.33333333 0 0 Z " fill="#5C38A5" transform="translate(314,115)"/>
<path d="M0 0 C0.66 0.33 1.32 0.66 2 1 C-0.97 5.95 -0.97 5.95 -4 11 C-5 7 -5 7 -4.00390625 5.078125 C-3.52824219 4.47484375 -3.05257812 3.8715625 -2.5625 3.25 C-2.08941406 2.63640625 -1.61632812 2.0228125 -1.12890625 1.390625 C-0.75636719 0.93171875 -0.38382812 0.4728125 0 0 Z " fill="#862BC0" transform="translate(125,125)"/>
<path d="M0 0 C0.99 0.33 1.98 0.66 3 1 C2.0479279 2.00596297 1.08812654 3.00461563 0.125 4 C-0.40867187 4.556875 -0.94234375 5.11375 -1.4921875 5.6875 C-3 7 -3 7 -5 7 C-3.70700306 4.11562221 -2.34058637 2.12780579 0 0 Z " fill="#8928B7" transform="translate(104,117)"/>
<path d="M0 0 C-0.33 0.99 -0.66 1.98 -1 3 C-6 2 -6 2 -11 1 C-7.2297564 -1.56376565 -4.32597804 -0.83191885 0 0 Z " fill="#9B38C9" transform="translate(176,99)"/>
<path d="M0 0 C3.07360743 3.07360743 3.57862333 3.89157749 4 8 C3.67 8.66 3.34 9.32 3 10 C2.34 10 1.68 10 1 10 C0.67 6.7 0.34 3.4 0 0 Z " fill="#564890" transform="translate(300,146)"/>
<path d="M0 0 C2.52259061 1.97420135 2.9929808 2.96745642 3.6875 6.1875 C3.790625 7.115625 3.89375 8.04375 4 9 C1.5 6.6875 1.5 6.6875 -1 4 C-1 1 -1 1 0 0 Z " fill="#732CB2" transform="translate(327,128)"/>
<path d="M0 0 C2.33333333 2.33333333 4.66666667 4.66666667 7 7 C6.67 7.99 6.34 8.98 6 10 C6 9.34 6 8.68 6 8 C5.01 7.67 4.02 7.34 3 7 C0 2.66666667 0 2.66666667 0 0 Z " fill="#442976" transform="translate(117,200)"/>
<path d="M0 0 C0.66 0.33 1.32 0.66 2 1 C-1.12621626 4.39417765 -3.56541027 6.6062718 -8 8 C-5.33333333 5.33333333 -2.66666667 2.66666667 0 0 Z " fill="#454273" transform="translate(252,153)"/>
<path d="M0 0 C-3.00617269 3.00617269 -5.82381598 2.59585316 -10 3 C-4.37755102 -1.45918367 -4.37755102 -1.45918367 0 0 Z " fill="#A54FC8" transform="translate(130,104)"/>
<path d="M0 0 C2.97 0 5.94 0 9 0 C6.60676196 2.39323804 5.26851362 2.44196109 2 3 C1.01 3.33 0.02 3.66 -1 4 C-0.67 2.68 -0.34 1.36 0 0 Z " fill="#17123E" transform="translate(182,301)"/>
<path d="M0 0 C0.99 0 1.98 0 3 0 C4.75 2.3125 4.75 2.3125 6 5 C5.67 5.99 5.34 6.98 5 8 C2.525 4.04 2.525 4.04 0 0 Z " fill="#973DBF" transform="translate(85,218)"/>
<path d="M0 0 C-0.99766109 2.49415272 -1.68616685 3.78740335 -3.9375 5.3125 C-6 6 -6 6 -9 5 C-7.87926138 4.16094435 -6.75325453 3.32892169 -5.625 2.5 C-4.99851562 2.0359375 -4.37203125 1.571875 -3.7265625 1.09375 C-2 0 -2 0 0 0 Z " fill="#524F78" transform="translate(263,147)"/>
<path d="M0 0 C0.66 0 1.32 0 2 0 C2.625 2.8125 2.625 2.8125 3 6 C2.34 6.99 1.68 7.98 1 9 C0.29925156 5.846632 0 3.27275026 0 0 Z " fill="#6F4DA1" transform="translate(330,131)"/>
<path d="M0 0 C1.5 1.1875 1.5 1.1875 3 3 C3.1875 5.6875 3.1875 5.6875 3 8 C0.9375 6.25 0.9375 6.25 -1 4 C-0.75 1.75 -0.75 1.75 0 0 Z " fill="#4F4B8F" transform="translate(323,117)"/>
</svg>
